<svg xmlns="http://www.w3.org/2000/svg" width="31.26" height="31.26" viewBox="0 0 31.26 31.26">
  <g id="noun_about_2510068" transform="translate(116.5 61.5)" opacity="0.67">
    <path id="Path_265" data-name="Path 265" d="M20.63,5A15.63,15.63,0,1,0,36.26,20.63,15.63,15.63,0,0,0,20.63,5Zm.617,7.305a2.194,2.194,0,0,1,2.1-1.617,1.324,1.324,0,0,1,1.389,1.636,2.194,2.194,0,0,1-2.1,1.616,1.324,1.324,0,0,1-1.389-1.636Zm3.5,14.943a11.85,11.85,0,0,1-3.519,2.836c-1.872.951-3.961.5-3.573-1.28L19.6,19.892c.369-1.7-1.152-1.533-2.873-.542a.173.173,0,0,1-.216-.263,11.85,11.85,0,0,1,3.519-2.836c1.872-.951,3.96-.5,3.574,1.28l-1.937,8.913c-.369,1.7,1.152,1.533,2.873.542a.173.173,0,0,1,.216.263Z" transform="translate(-121.5 -66.5)" fill="#a287f4"/>
  </g>
</svg>
