<svg xmlns="http://www.w3.org/2000/svg" width="31.26" height="31.26" viewBox="0 0 31.26 31.26">
  <g id="noun_account_2195459" transform="translate(-101.998 578)" opacity="0.67">
    <g id="_28" data-name="28" transform="translate(101.998 -578)">
      <path id="Path_264" data-name="Path 264" d="M17.634,2A15.632,15.632,0,0,0,7.2,29.279a14.517,14.517,0,0,0,1.217.983,15.634,15.634,0,0,0,18.414,0,14.45,14.45,0,0,0,1.217-.983A15.632,15.632,0,0,0,17.634,2Zm0,5.583a4.466,4.466,0,1,1-4.467,4.466A4.467,4.467,0,0,1,17.634,7.583Zm0,22.332a12.284,12.284,0,0,1-9.469-4.466,10.05,10.05,0,0,1,18.984,0,12.284,12.284,0,0,1-9.514,4.466Z" transform="translate(-1.998 -2)" fill="#a287f4"/>
    </g>
  </g>
</svg>
