<svg xmlns="http://www.w3.org/2000/svg" width="32.149" height="22.29" viewBox="0 0 32.149 22.29">
  <g id="noun_prisoner_1250859" transform="translate(-2.801 -5.775)" opacity="0.67">
    <path id="Path_267" data-name="Path 267" d="M7.625,26.432a5.313,5.313,0,0,1,.151,1.215h6.566a16.174,16.174,0,0,1,.173-2.394,12.32,12.32,0,0,1,1.671-3.079c.558-.955,1.667-2.123,1.584-3.167a7.626,7.626,0,0,0-1.3-2.577c-.357-.517-1.776-2.7-2.22-2.641-.105.015-.208.032-.308.051l-.862.391-1.5.683-1.006.456-.435.2a1.882,1.882,0,0,0,2.533.977,13.025,13.025,0,0,1,.88,1.2A3.433,3.433,0,0,0,10.7,21.47c-.009.415.069,2.231-.584,2.25-.524-.03-.113-3.086-.011-3.623-.356.731-1.308.63-1.73.573-.04,1.062-.535,1.175-1.433,1.246A2.9,2.9,0,0,1,4.58,20.583a17.936,17.936,0,0,0,.462,2.382,2.874,2.874,0,0,0,1.084,1.872A2.613,2.613,0,0,1,7.625,26.432Z" transform="translate(-1.172 -5.277)" fill="#a287f4"/>
    <path id="Path_268" data-name="Path 268" d="M34.833,54.9V55.8h.609a.707.707,0,0,1,.368.106h1.132a1.621,1.621,0,0,0-1.5-1.014Z" transform="translate(-21.1 -32.356)" fill="#a287f4"/>
    <path id="Path_269" data-name="Path 269" d="M35.442,61.517h-.609v.907h.609a1.621,1.621,0,0,0,1.5-1.013H35.809A.7.7,0,0,1,35.442,61.517Z" transform="translate(-21.1 -36.649)" fill="#a287f4"/>
    <path id="Path_270" data-name="Path 270" d="M13.692,64.881c-.031.9-.077,1.686-.12,2.118h6.854c-.038-.557-.079-1.3-.111-2.117Z" transform="translate(-7.095 -38.934)" fill="#a287f4"/>
    <path id="Path_271" data-name="Path 271" d="M39.6,59.217a.454.454,0,1,0,0-.908H36.008a.454.454,0,0,0,0,.909H39.6Z" transform="translate(-21.575 -34.605)" fill="#a287f4"/>
    <path id="Path_272" data-name="Path 272" d="M44.769,55.8h1.525a.7.7,0,0,1,.368.106h1.131a1.619,1.619,0,0,0-1.5-1.014H44.769a1.62,1.62,0,0,0-1.5,1.014H44.4A.7.7,0,0,1,44.769,55.8Z" transform="translate(-26.657 -32.357)" fill="#a287f4"/>
    <path id="Path_273" data-name="Path 273" d="M46.3,61.518H44.771a.7.7,0,0,1-.367-.105H43.271a1.622,1.622,0,0,0,1.5,1.013H46.3a1.621,1.621,0,0,0,1.5-1.013H46.664A.711.711,0,0,1,46.3,61.518Z" transform="translate(-26.658 -36.649)" fill="#a287f4"/>
    <path id="Path_274" data-name="Path 274" d="M55.115,59.217a.454.454,0,1,0,0-.908H51.528a.454.454,0,0,0,0,.908h3.588Z" transform="translate(-31.798 -34.605)" fill="#a287f4"/>
    <path id="Path_275" data-name="Path 275" d="M80.35,20.713a1.353,1.353,0,0,0,.706-.261l.391-.555.636-.9.952-1.35.793-1.294.047-.067c.216-.337.5-.983-.007-1.233-.424-.178-.746-.276-1.053.046L79.357,20A1.156,1.156,0,0,0,80.35,20.713Z" transform="translate(-50.428 -6.001)" fill="#a287f4"/>
    <path id="Path_276" data-name="Path 276" d="M85.811,25.987a1.188,1.188,0,0,0-.035.126c-.111.582.695.772,1.056.7a3.1,3.1,0,0,0,1.625-1.225c.334-.409,1.483-1.932,1.045-2.835-.245-.5-.836-.694-1.138-.389Z" transform="translate(-54.65 -10.833)" fill="#a287f4"/>
    <path id="Path_277" data-name="Path 277" d="M72.877,5.8c-1.3-.235-1.907,1.332-2.484,2.271l1.962.89C73.027,8.013,74.595,6.381,72.877,5.8Z" transform="translate(-44.524 0)" fill="#a287f4"/>
    <path id="Path_278" data-name="Path 278" d="M75.155,11.293c.169.085.29.149.4.209l.322.146.441.2-.129.323c-.425,1.053-1.35,2.228-2.7,1.831-.206.647.388.683.813.87.322.068.577.373,1.138-.306l.405-.519,0-.006L76.8,12.7l0,0,1.2-1.7a4.124,4.124,0,0,0,.382-.71.846.846,0,0,0-.375-1.308,1.063,1.063,0,0,0-1.335.163l-1.343,1.9Z" transform="translate(-46.538 -2.003)" fill="#a287f4"/>
    <path id="Path_279" data-name="Path 279" d="M6.713,16.351l.793,1.294L8.457,19l.636.9.391.555a1.361,1.361,0,0,0,.707.261A1.156,1.156,0,0,0,11.184,20L7.725,15.1c-.307-.322-.629-.225-1.053-.046-.511.251-.222.9-.006,1.234Z" transform="translate(-2.362 -6.001)" fill="#a287f4"/>
    <path id="Path_280" data-name="Path 280" d="M5.569,26.818c.361.068,1.168-.121,1.056-.7a1.153,1.153,0,0,0-.035-.126L4.037,22.369c-.3-.305-.893-.115-1.138.389-.437.9.712,2.426,1.046,2.835A3.1,3.1,0,0,0,5.569,26.818Z" transform="translate(0 -10.834)" fill="#a287f4"/>
    <path id="Path_281" data-name="Path 281" d="M23.112,8.07c-.576-.939-1.185-2.506-2.483-2.271-1.718.582-.151,2.214.522,3.161Z" transform="translate(-11.231 0)" fill="#a287f4"/>
    <path id="Path_282" data-name="Path 282" d="M11.949,11l1.2,1.7,0,0L14.1,14.05c-.029-.045-.061-.091-.091-.137l.092.137.405.519c.56.679.815.373,1.138.306.425-.187,1.019-.221.813-.87-1.349.4-2.274-.778-2.7-1.831l-.129-.323.442-.2.322-.146c.113-.059.233-.124.4-.209l-.176-.248-1.343-1.9a1.064,1.064,0,0,0-1.335-.163.845.845,0,0,0-.374,1.308A4.142,4.142,0,0,0,11.949,11Z" transform="translate(-5.662 -2.007)" fill="#a287f4"/>
    <path id="Path_283" data-name="Path 283" d="M67.4,21.916c-.9-.071-1.393-.184-1.434-1.246-.42.058-1.374.158-1.728-.573.1.537.513,3.593-.011,3.624-.653-.02-.575-1.836-.584-2.25a3.433,3.433,0,0,0-2.847-3.723,12.986,12.986,0,0,1,.88-1.2,1.881,1.881,0,0,0,2.532-.977l-.435-.2-1.007-.456-1.5-.683-.861-.391c-.1-.018-.2-.035-.308-.051-.445-.064-1.864,2.124-2.221,2.641a7.624,7.624,0,0,0-1.3,2.577c-.084,1.044,1.026,2.213,1.584,3.167a12.3,12.3,0,0,1,1.671,3.079A16.266,16.266,0,0,1,60,27.647h6.566a5.4,5.4,0,0,1,.151-1.215,2.615,2.615,0,0,1,1.5-1.594A2.877,2.877,0,0,0,69.3,22.965a17.75,17.75,0,0,0,.462-2.382A2.914,2.914,0,0,1,67.4,21.916Z" transform="translate(-35.416 -5.277)" fill="#a287f4"/>
    <path id="Path_284" data-name="Path 284" d="M66.26,64.881c-.032.817-.073,1.56-.111,2.117H73c-.044-.432-.089-1.22-.12-2.117Z" transform="translate(-41.728 -38.934)" fill="#a287f4"/>
    <path id="Path_285" data-name="Path 285" d="M59.925,61.412H58.792a1.622,1.622,0,0,0,1.5,1.013h.585v-.907h-.586A.7.7,0,0,1,59.925,61.412Z" transform="translate(-36.882 -36.649)" fill="#a287f4"/>
    <path id="Path_286" data-name="Path 286" d="M58.791,55.91h1.132a.706.706,0,0,1,.367-.106h.586V54.9h-.585A1.622,1.622,0,0,0,58.791,55.91Z" transform="translate(-36.881 -32.356)" fill="#a287f4"/>
    <path id="Path_287" data-name="Path 287" d="M11.9,58.292h7.486V55.4H11.9Z" transform="translate(-5.992 -32.686)" fill="#a287f4"/>
    <path id="Path_288" data-name="Path 288" d="M65.9,56.134v2.158h7.487V55.4H65.9Z" transform="translate(-41.565 -32.686)" fill="#a287f4"/>
  </g>
</svg>
