<svg id="_Icon" data-name="↳ Icon" xmlns="http://www.w3.org/2000/svg" width="13.928" height="13.125" viewBox="0 0 13.928 13.125">
  <path id="Combined_Shape" data-name="Combined Shape" d="M10.576,13.015,7.3,10.66a.576.576,0,0,0-.67,0L3.352,13.015a.565.565,0,0,1-.333.11.558.558,0,0,1-.541-.725L3.737,8.569a.547.547,0,0,0-.2-.615L.232,5.581a.552.552,0,0,1,.334-1H4.634A.564.564,0,0,0,5.173,4.2L6.425.384A.57.57,0,0,1,7.5.384L8.755,4.2a.564.564,0,0,0,.539.384h4.068a.552.552,0,0,1,.334,1L10.4,7.954a.547.547,0,0,0-.2.615L11.45,12.4a.558.558,0,0,1-.541.725A.565.565,0,0,1,10.576,13.015Z" transform="translate(0)" fill="#707070"/>
</svg>
