<svg id="Action_1" data-name="Action 1" xmlns="http://www.w3.org/2000/svg" width="22.954" height="22.94" viewBox="0 0 22.954 22.94">
  <path id="compose" d="M19.006,22.94H0v-19H15l-1,1H1v17H18.006v-13l1-1v15ZM7.741,15.167h0l.507-1.82.507-1.823,4.937-4.9,4.938-4.9.433.43.434.433-9.874,9.8.637.633.229.229,9.876-9.8.408.4.46.456-9.875,9.8L7.741,15.167ZM21.723,3.82h0l-2.6-2.586.359-.406.4-.457a1.289,1.289,0,0,1,1.807,0l.9.9a1.216,1.216,0,0,1,.248.373,1.262,1.262,0,0,1,0,1.052,1.25,1.25,0,0,1-.248.374l-.867.75Z" transform="translate(0 0)" fill="#12e6c8"/>
</svg>
